# xmcd
#
# Track frame offsets:
#  150
#  905
#  18512
#  36557
#  55077
#  73620
#  92190
#  108115
#  122750
#  140670
#  161042
#  177325
#  193385
#  194138
#  213605
#  231887
#  251340
#  266700
#
# Disc length: 3812 seconds
#
# Revision: 0
# Processed by: cddbd v1.5.1PL2 Copyright (c) Steve Scherf et al.
# Submitted via: Collectorz.com_Music_Collector 6.10
#
DISCID=0e0ee212
DTITLE=Various Artist - 132B
DYEAR=1996
DGENRE=Pop
TTITLE0=N/A
TTITLE1=Dwellers - Thanks To Sara
TTITLE2=Bob Seger and The Silver Bullet Band - Hands In The Air
TTITLE3=Jackson Browne - Some Bridges
TTITLE4=Dan Baird - Younger Face
TTITLE5=Down - Rehab
TTITLE6=16 Horsepower - Black Soul Choir
TTITLE7=Salt - Bluster
TTITLE8=Meat Puppets - Taste Of The Sun
TTITLE9=Silverchair - Israel's Son
TTITLE10=Menthol - Stress Is Best
TTITLE11=Ruby - Tiny Meat
TTITLE12=N/A
TTITLE13=Mona Lisa - Can't Be Wasting My Time
TTITLE14=Art N' Soul - Ever Since You Went Away
TTITLE15=Rappin' 4-Tay - Ain't No Playa
TTITLE16=Oleta Adams - Never Knew Love
TTITLE17=Genius/GZA and Inspektah Deck - Cold World
EXTD=
EXTT0=
EXTT1=
EXTT2=
EXTT3=
EXTT4=
EXTT5=
EXTT6=
EXTT7=
EXTT8=
EXTT9=
EXTT10=
EXTT11=
EXTT12=
EXTT13=
EXTT14=
EXTT15=
EXTT16=
EXTT17=
PLAYORDER=
